<svg width="75" height="33" viewBox="0 0 75 33" fill="none" xmlns="http://www.w3.org/2000/svg">
<rect width="75" height="32.1429" rx="16.0714" fill="#5D56F3"/>
<path d="M16.1623 6.28943C10.8415 6.28943 6.51257 10.6183 6.51257 15.9391C6.51257 21.2599 10.8415 25.5889 16.1623 25.5889C21.4831 25.5889 25.812 21.2599 25.812 15.9391C25.812 10.6183 21.4831 6.28943 16.1623 6.28943ZM17.6469 20.3929H14.6777C14.4808 20.3929 14.292 20.3146 14.1528 20.1754C14.0136 20.0362 13.9354 19.8474 13.9354 19.6506C13.9354 19.4537 14.0136 19.2649 14.1528 19.1257C14.292 18.9865 14.4808 18.9083 14.6777 18.9083H17.6469C17.8437 18.9083 18.0325 18.9865 18.1717 19.1257C18.3109 19.2649 18.3891 19.4537 18.3891 19.6506C18.3891 19.8474 18.3109 20.0362 18.1717 20.1754C18.0325 20.3146 17.8437 20.3929 17.6469 20.3929ZM19.8737 17.4237H12.4509C12.254 17.4237 12.0652 17.3455 11.926 17.2063C11.7868 17.0671 11.7086 16.8783 11.7086 16.6814C11.7086 16.4846 11.7868 16.2958 11.926 16.1565C12.0652 16.0173 12.254 15.9391 12.4509 15.9391H19.8737C20.0706 15.9391 20.2594 16.0173 20.3986 16.1565C20.5378 16.2958 20.616 16.4846 20.616 16.6814C20.616 16.8783 20.5378 17.0671 20.3986 17.2063C20.2594 17.3455 20.0706 17.4237 19.8737 17.4237ZM21.3583 14.4546H10.9663C10.7694 14.4546 10.5806 14.3764 10.4414 14.2372C10.3022 14.098 10.224 13.9092 10.224 13.7123C10.224 13.5154 10.3022 13.3266 10.4414 13.1874C10.5806 13.0482 10.7694 12.97 10.9663 12.97H21.3583C21.5551 12.97 21.744 13.0482 21.8832 13.1874C22.0224 13.3266 22.1006 13.5154 22.1006 13.7123C22.1006 13.9092 22.0224 14.098 21.8832 14.2372C21.744 14.3764 21.5551 14.4546 21.3583 14.4546Z" fill="#A29EF0"/>
<path d="M32.6807 20.7449V12.2049H37.492V13.131H33.6911V16.0659H37.1431V16.9921H33.6911V20.7449H32.6807ZM40.1054 12.7221C40.1054 12.8424 40.0733 12.9546 40.0091 13.0589C39.953 13.1551 39.8728 13.2353 39.7686 13.2994C39.6723 13.3556 39.5641 13.3836 39.4438 13.3836C39.3235 13.3836 39.2113 13.3556 39.107 13.2994C39.0108 13.2353 38.9306 13.1551 38.8665 13.0589C38.8103 12.9546 38.7823 12.8424 38.7823 12.7221C38.7823 12.6018 38.8103 12.4935 38.8665 12.3973C38.9306 12.2931 39.0108 12.2129 39.107 12.1568C39.2113 12.0926 39.3235 12.0605 39.4438 12.0605C39.5641 12.0605 39.6723 12.0926 39.7686 12.1568C39.8728 12.2129 39.953 12.2931 40.0091 12.3973C40.0733 12.4935 40.1054 12.6018 40.1054 12.7221ZM38.9627 20.7449V14.5383H39.9249V20.7449H38.9627ZM41.6056 20.7449V11.82H42.5678V20.7449H41.6056ZM46.5699 20.9253C46.1931 20.9253 45.8683 20.8491 45.5957 20.6968C45.323 20.5444 45.1105 20.3199 44.9582 20.0232C44.8138 19.7265 44.7417 19.3656 44.7417 18.9406V15.3563H43.599V14.5383H44.7417V12.4575H45.7039V14.5383H47.6525V15.3563H45.7039V18.8925C45.7039 19.2614 45.7801 19.5501 45.9324 19.7586C46.0928 19.959 46.3334 20.0593 46.6541 20.0593C46.8225 20.0593 46.9909 20.0352 47.1593 19.9871C47.3357 19.931 47.4921 19.8588 47.6284 19.7706L47.9171 20.5163C47.7487 20.6366 47.5522 20.7328 47.3277 20.805C47.1032 20.8852 46.8506 20.9253 46.5699 20.9253ZM51.8556 20.9253C51.3985 20.9253 50.9775 20.8451 50.5926 20.6847C50.2157 20.5244 49.887 20.2998 49.6063 20.0112C49.3256 19.7145 49.1091 19.3697 48.9568 18.9767C48.8044 18.5758 48.7282 18.1348 48.7282 17.6536C48.7282 17.1805 48.8004 16.7475 48.9447 16.3546C49.0971 15.9537 49.3056 15.6048 49.5702 15.3081C49.8429 15.0114 50.1596 14.7829 50.5204 14.6225C50.8813 14.4541 51.2742 14.3699 51.6992 14.3699C52.1082 14.3699 52.485 14.4461 52.8298 14.5985C53.1827 14.7508 53.4874 14.9633 53.744 15.236C54.0006 15.5086 54.197 15.8334 54.3334 16.2103C54.4777 16.5871 54.5499 16.9961 54.5499 17.4371V17.8341H49.7266C49.7587 18.2831 49.8629 18.676 50.0393 19.0128C50.2237 19.3496 50.4683 19.6102 50.773 19.7946C51.0777 19.9791 51.4306 20.0713 51.8315 20.0713C52.2244 20.0713 52.5652 19.9911 52.8539 19.8307C53.1506 19.6623 53.4032 19.4178 53.6117 19.097L54.4296 19.4699C54.2692 19.7746 54.0607 20.0352 53.8041 20.2517C53.5475 20.4682 53.2508 20.6326 52.914 20.7449C52.5853 20.8652 52.2324 20.9253 51.8556 20.9253ZM51.6992 15.1879C51.3704 15.1879 51.0697 15.268 50.7971 15.4284C50.5325 15.5888 50.3079 15.8133 50.1235 16.102C49.9471 16.3827 49.8308 16.7114 49.7747 17.0883H53.5395C53.5074 16.7114 53.4072 16.3827 53.2388 16.102C53.0704 15.8133 52.8539 15.5888 52.5893 15.4284C52.3247 15.268 52.028 15.1879 51.6992 15.1879ZM55.9243 20.7449V14.5383H56.7903L56.8505 15.693C57.0028 15.3081 57.2313 15.0074 57.5361 14.7909C57.8408 14.5664 58.1976 14.4541 58.6066 14.4541C58.7429 14.4541 58.8632 14.4662 58.9674 14.4902C59.0797 14.5063 59.1759 14.5303 59.2561 14.5624L59.1358 15.4765C59.0476 15.4445 58.9554 15.4244 58.8592 15.4164C58.7629 15.4004 58.6667 15.3923 58.5705 15.3923C58.2337 15.3923 57.937 15.4765 57.6804 15.6449C57.4318 15.8133 57.2354 16.0539 57.091 16.3666C56.9547 16.6713 56.8865 17.0322 56.8865 17.4492V20.7449H55.9243ZM62.3954 20.9253C62.0346 20.9253 61.6938 20.8652 61.373 20.7449C61.0603 20.6246 60.7877 20.4522 60.5551 20.2277C60.3226 20.0031 60.1462 19.7385 60.0259 19.4338L60.8919 19.1211C61.0523 19.4258 61.2608 19.6623 61.5174 19.8307C61.774 19.9991 62.0667 20.0833 62.3954 20.0833C62.6601 20.0833 62.8926 20.0392 63.0931 19.951C63.2935 19.8628 63.4499 19.7425 63.5622 19.5902C63.6744 19.4298 63.7306 19.2534 63.7306 19.0609C63.7306 18.5397 63.3537 18.2029 62.5999 18.0506L62.1308 17.9543C61.4733 17.826 60.9881 17.6175 60.6754 17.3289C60.3627 17.0322 60.2063 16.6593 60.2063 16.2103C60.2063 15.8494 60.2985 15.5287 60.483 15.248C60.6674 14.9673 60.924 14.7508 61.2528 14.5985C61.5895 14.4381 61.9704 14.3579 62.3954 14.3579C62.7483 14.3579 63.073 14.4181 63.3697 14.5383C63.6664 14.6506 63.919 14.819 64.1275 15.0435C64.344 15.268 64.5084 15.5327 64.6206 15.8374L63.7546 16.1261C63.6263 15.8294 63.4419 15.6008 63.2013 15.4405C62.9688 15.2721 62.6961 15.1879 62.3834 15.1879C62.1428 15.1879 61.9303 15.228 61.7459 15.3081C61.5695 15.3883 61.4292 15.4966 61.3249 15.6329C61.2207 15.7692 61.1686 15.9296 61.1686 16.114C61.1686 16.3706 61.2648 16.5751 61.4572 16.7275C61.6577 16.8798 61.9785 17.0001 62.4195 17.0883L62.8886 17.1845C63.482 17.3048 63.935 17.5173 64.2478 17.822C64.5605 18.1187 64.7169 18.4996 64.7169 18.9647C64.7169 19.2534 64.6567 19.518 64.5365 19.7586C64.4242 19.9911 64.2638 20.1956 64.0553 20.372C63.8549 20.5484 63.6103 20.6847 63.3216 20.781C63.0409 20.8772 62.7322 20.9253 62.3954 20.9253Z" fill="white"/>
</svg>
